<svg width="1280" height="720" xmlns="http://www.w3.org/2000/svg" xmlns:xlink="http://www.w3.org/1999/xlink" overflow="hidden"><defs><filter id="fx0" x="-10%" y="-10%" width="120%" height="120%" filterUnits="userSpaceOnUse" primitiveUnits="userSpaceOnUse"><feComponentTransfer color-interpolation-filters="sRGB"><feFuncR type="discrete" tableValues="0.0470588 0.0470588"/><feFuncG type="discrete" tableValues="0.305882 0.305882"/><feFuncB type="discrete" tableValues="0.494118 0.494118"/><feFuncA type="linear" slope="0.4" intercept="0"/></feComponentTransfer><feGaussianBlur stdDeviation="2.22222 2.22222"/></filter><filter id="fx1" x="-10%" y="-10%" width="120%" height="120%" filterUnits="userSpaceOnUse" primitiveUnits="userSpaceOnUse"><feComponentTransfer color-interpolation-filters="sRGB"><feFuncR type="discrete" tableValues="0 0"/><feFuncG type="discrete" tableValues="0 0"/><feFuncB type="discrete" tableValues="0 0"/><feFuncA type="linear" slope="0.4" intercept="0"/></feComponentTransfer><feGaussianBlur stdDeviation="2.22222 2.22222"/></filter><filter id="fx2" x="-10%" y="-10%" width="120%" height="120%" filterUnits="userSpaceOnUse" primitiveUnits="userSpaceOnUse"><feComponentTransfer color-interpolation-filters="sRGB"><feFuncR type="discrete" tableValues="0 0"/><feFuncG type="discrete" tableValues="0 0"/><feFuncB type="discrete" tableValues="0 0"/><feFuncA type="linear" slope="0.4" intercept="0"/></feComponentTransfer><feGaussianBlur stdDeviation="2.22222 2.22222"/></filter><clipPath id="clip3"><rect x="0" y="0" width="1280" height="720"/></clipPath><clipPath id="clip4"><rect x="-10" y="-6" width="1314" height="745"/></clipPath><clipPath id="clip5"><rect x="0" y="0" width="1294" height="734"/></clipPath><linearGradient x1="1275" y1="360" x2="5" y2="360" gradientUnits="userSpaceOnUse" spreadMethod="reflect" id="fill6"><stop offset="0" stop-color="#041220"/><stop offset="0.333333" stop-color="#04111F"/><stop offset="0.666667" stop-color="#04101E"/><stop offset="1" stop-color="#040E1C"/></linearGradient><clipPath id="clip7"><rect x="-4" y="-2" width="1189" height="501"/></clipPath><clipPath id="clip8"><rect x="0" y="0" width="1182" height="496"/></clipPath><clipPath id="clip9"><rect x="-4" y="-2" width="1189" height="486"/></clipPath><clipPath id="clip10"><rect x="0" y="0" width="1182" height="482"/></clipPath></defs><g clip-path="url(#clip3)"><rect x="0" y="0" width="1280" height="720" fill="#404860"/><g clip-path="url(#clip4)" filter="url(#fx0)" transform="translate(-7 -7)"><g clip-path="url(#clip5)"><path d="M-0.7 13.5473C-0.7 8.77154 3.17154 4.9 7.94733 4.9L1286.05 4.9C1290.83 4.9 1294.7 8.77154 1294.7 13.5473L1294.7 720.453C1294.7 725.229 1290.83 729.1 1286.05 729.1L7.94733 729.1C3.17154 729.1-0.7 725.229-0.7 720.453Z" fill="#FF0000" fill-rule="evenodd"/></g></g><path d="M5 13.4778C5 8.79563 8.79563 5 13.4778 5L1266.52 5C1271.2 5 1275 8.79563 1275 13.4778L1275 706.522C1275 711.204 1271.2 715 1266.52 715L13.4778 715C8.79563 715 5 711.204 5 706.522Z" fill="url(#fill6)" fill-rule="evenodd"/><path d="M14 18.6436C14 14.4222 17.4222 11 21.6436 11L1257.36 11C1261.58 11 1265 14.4222 1265 18.6436L1265 701.356C1265 705.578 1261.58 709 1257.36 709L21.6436 709C17.4222 709 14 705.578 14 701.356Z" fill-rule="evenodd"/><path d="M68 214.043C68 205.735 74.735 199 83.0432 199L1196.96 199C1205.26 199 1212 205.735 1212 214.043L1212 667.957C1212 676.265 1205.26 683 1196.96 683L83.0432 683C74.735 683 68 676.265 68 667.957Z" fill="#050E1D" fill-rule="evenodd"/><g clip-path="url(#clip7)" filter="url(#fx1)" transform="translate(49 186)"><g clip-path="url(#clip8)"><path d="M7.56 23.1999C7.56 14.9709 14.2309 8.3 22.4599 8.3L1159.54 8.3C1167.77 8.3 1174.44 14.9709 1174.44 23.1999L1174.44 472.8C1174.44 481.029 1167.77 487.7 1159.54 487.7L22.4599 487.7C14.2309 487.7 7.56 481.029 7.56 472.8Z" fill="#050E1D" fill-rule="evenodd"/></g></g><path d="M68 213.608C68 205.54 74.5401 199 82.6078 199L1197.39 199C1205.46 199 1212 205.54 1212 213.608L1212 654.392C1212 662.46 1205.46 669 1197.39 669L82.6078 669C74.5401 669 68 662.46 68 654.392Z" fill="#050E1D" fill-rule="evenodd"/><g clip-path="url(#clip9)" filter="url(#fx2)" transform="translate(49 186)"><g clip-path="url(#clip10)"><path d="M7.56 22.8958C7.56 14.9121 14.0321 8.44 22.0158 8.44L1159.98 8.44C1167.97 8.44 1174.44 14.9121 1174.44 22.8958L1174.44 459.104C1174.44 467.088 1167.97 473.56 1159.98 473.56L22.0158 473.56C14.0321 473.56 7.56 467.088 7.56 459.104Z" fill="#050E1D" fill-rule="evenodd"/></g></g><path d="M68 213.172C68 205.345 74.3452 199 82.1724 199L1197.83 199C1205.65 199 1212 205.345 1212 213.172L1212 640.828C1212 648.655 1205.65 655 1197.83 655L82.1724 655C74.3452 655 68 648.655 68 640.828Z" fill="#050E1D" fill-rule="evenodd"/></g></svg>